<?xml version="1.0" encoding="UTF-8"?>
<svg width="800" height="500" viewBox="0 0 800 500" fill="none" xmlns="http://www.w3.org/2000/svg">
  <!-- Background -->
  <rect width="800" height="500" rx="16" fill="#FFFFFF"/>
  
  <!-- Sidebar -->
  <rect width="200" height="500" fill="#F8F7F4"/>
  
  <!-- Logo Placeholder -->
  <rect x="50" y="30" width="100" height="40" rx="8" fill="#FF0000" opacity="0.8"/>
  
  <!-- Navigation Items -->
  <rect x="30" y="100" width="140" height="36" rx="8" fill="#FF0000" opacity="0.9"/>
  <rect x="20" y="100" width="8" height="36" rx="4" fill="#FFFFFF"/>
  
  <rect x="30" y="150" width="140" height="36" rx="8" fill="#F0F0F0"/>
  <rect x="30" y="200" width="140" height="36" rx="8" fill="#F0F0F0"/>
  <rect x="30" y="250" width="140" height="36" rx="8" fill="#F0F0F0"/>
  <rect x="30" y="300" width="140" height="36" rx="8" fill="#F0F0F0"/>
  
  <!-- Main Content Area -->
  <!-- Header -->
  <rect x="220" y="30" width="560" height="50" rx="8" fill="#FAFAFA"/>
  <rect x="240" y="45" width="180" height="20" rx="4" fill="#003366"/>
  <circle cx="740" cy="45" r="15" fill="#F0F0F0"/>
  
  <!-- Stat Cards -->
  <rect x="220" y="100" width="270" height="120" rx="8" fill="#FFFFFF" stroke="#EEEEEE" stroke-width="1"/>
  <rect x="240" y="120" width="100" height="20" rx="4" fill="#003366"/>
  <rect x="240" y="160" width="60" height="40" rx="4" fill="#FF0000" opacity="0.8"/>
  
  <rect x="510" y="100" width="270" height="120" rx="8" fill="#FFFFFF" stroke="#EEEEEE" stroke-width="1"/>
  <rect x="530" y="120" width="100" height="20" rx="4" fill="#003366"/>
  <rect x="530" y="160" width="60" height="40" rx="4" fill="#003366" opacity="0.8"/>
  
  <!-- Calculator Box -->
  <rect x="220" y="240" width="560" height="120" rx="8" fill="#FFFFFF" stroke="#EEEEEE" stroke-width="1"/>
  <rect x="240" y="260" width="150" height="24" rx="4" fill="#003366"/>
  <rect x="240" y="300" width="100" height="40" rx="4" fill="#F0F0F0"/>
  <rect x="360" y="300" width="400" height="40" rx="4" fill="#F0F0F0"/>
  
  <!-- Chart Section -->
  <rect x="220" y="380" width="270" height="100" rx="8" fill="#FFFFFF" stroke="#EEEEEE" stroke-width="1"/>
  <rect x="240" y="400" width="80" height="20" rx="4" fill="#003366"/>
  <circle cx="330" cy="430" r="40" fill="none" stroke="#FF0000" stroke-width="10" stroke-dasharray="180 220"/>
  
  <rect x="510" y="380" width="270" height="100" rx="8" fill="#FFFFFF" stroke="#EEEEEE" stroke-width="1"/>
  <rect x="530" y="400" width="80" height="20" rx="4" fill="#003366"/>
  <rect x="530" y="430" width="230" height="30" rx="4" fill="#F0F0F0"/>
</svg>